<svg xmlns="http://www.w3.org/2000/svg" enable-background="new 0 0 256 256" viewBox="0 0 256 256"><path fill="#FCC4AE" d="M42.379,168.642L169.901,41.12c12.768-12.768,33.469-12.768,46.238,0l0,0
			c12.768,12.768,12.768,33.469,0,46.238L88.616,214.88c-12.768,12.768-33.469,12.768-46.238,0l0,0
			C29.61,202.112,29.61,181.41,42.379,168.642z"/><path fill="#FFD2C0" d="M43.99,209.57c-0.641,0-1.24-0.3-1.61-0.81c-0.01,0-0.01,0-0.01-0.01c-0.311-0.43-0.44-0.95-0.36-1.48
				c0.08-0.52,0.36-0.99,0.79-1.3c0.85-0.64,2.16-0.44,2.79,0.41l0.01,0.01c0.311,0.43,0.44,0.96,0.36,1.49
				c-0.08,0.52-0.36,0.99-0.79,1.31C44.83,209.44,44.42,209.57,43.99,209.57z M40.28,202.52c-0.851,0-1.61-0.54-1.891-1.35
				c-1.05-3.02-1.58-6.19-1.58-9.41c0-6.58,2.271-12.99,6.4-18.07c0.66-0.82,1.979-0.96,2.81-0.29c0.851,0.7,0.98,1.96,0.29,2.81
				c-3.54,4.37-5.5,9.89-5.5,15.55c0,2.77,0.46,5.5,1.36,8.11c0.36,1.04-0.19,2.18-1.23,2.54C40.72,202.48,40.5,202.52,40.28,202.52
				z"/><path fill="#F2AD97" d="M216.138,41.12L216.138,41.12c-1.718-1.718-3.582-3.196-5.548-4.452
		c8.078,12.649,6.599,29.639-4.452,40.689L78.616,204.88c-11.051,11.051-28.04,12.529-40.689,4.452
		c1.255,1.966,2.734,3.831,4.452,5.548l0,0c12.768,12.768,33.469,12.768,46.238,0L216.138,87.358
		C228.907,74.589,228.907,53.888,216.138,41.12z"/><path fill="#E59076" d="M216.138,41.12L216.138,41.12c-0.845-0.845-1.727-1.63-2.637-2.363c10.345,12.839,9.56,31.678-2.363,43.601
		L83.616,209.88c-11.923,11.923-30.762,12.708-43.601,2.363c0.733,0.91,1.518,1.792,2.363,2.637l0,0
		c12.768,12.768,33.469,12.768,46.238,0L216.138,87.358C228.907,74.589,228.907,53.888,216.138,41.12z"/><path fill="#FFD2C0" d="M151.479,59.542c2.673,0.211,5.495,0.327,8.418,0.327c16.708,0,30.253-3.698,30.253-8.261
		c0-3.853-9.663-7.09-22.733-8.003L151.479,59.542z"/><path fill="#F2AD97" d="M185.108,47.04c-0.803,4.247-13.352,7.644-28.947,7.819l-4.682,4.682c2.673,0.211,5.495,0.327,8.418,0.327
		c16.708,0,30.253-3.698,30.253-8.261C190.15,49.919,188.293,48.349,185.108,47.04z"/><path fill="#FFD2C0" d="M132.212,87.553c16.708,0,30.253-3.698,30.253-8.261c0-3.853-9.663-7.09-22.733-8.003l-15.938,15.938
		C126.468,87.438,129.29,87.553,132.212,87.553z"/><path fill="#F2AD97" d="M157.423,74.725c-0.803,4.247-13.352,7.644-28.947,7.819l-4.682,4.682c2.673,0.211,5.495,0.327,8.418,0.327
		c16.708,0,30.253-3.698,30.253-8.261C162.465,77.604,160.608,76.033,157.423,74.725z"/><path fill="#FFD2C0" d="M104.527,115.238c16.708,0,30.253-3.698,30.253-8.261c0-3.853-9.663-7.09-22.733-8.003l-15.938,15.938
		C98.783,115.122,101.605,115.238,104.527,115.238z"/><path fill="#F2AD97" d="M129.738,102.41c-0.803,4.247-13.352,7.644-28.947,7.819l-4.682,4.682c2.673,0.211,5.495,0.327,8.418,0.327
		c16.708,0,30.253-3.698,30.253-8.261C134.78,105.289,132.923,103.718,129.738,102.41z"/><path fill="#FFD2C0" d="M76.842,142.923c16.708,0,30.253-3.699,30.253-8.261c0-3.853-9.663-7.09-22.733-8.003l-15.938,15.938
		C71.098,142.807,73.92,142.923,76.842,142.923z"/><path fill="#F2AD97" d="M102.053,130.095c-0.803,4.247-13.352,7.644-28.947,7.819l-4.682,4.682
		c2.673,0.211,5.495,0.327,8.418,0.327c16.708,0,30.253-3.699,30.253-8.261C107.095,132.973,105.238,131.403,102.053,130.095z"/><path fill="#FFD2C0" d="M40.852,170.29c2.64,0.206,5.424,0.318,8.306,0.318c16.708,0,30.253-3.699,30.253-8.261
		c0-3.853-9.663-7.09-22.733-8.003l-14.299,14.299C41.844,169.176,41.341,169.729,40.852,170.29z"/><path fill="#F2AD97" d="M74.368,157.78c-0.803,4.247-13.352,7.644-28.947,7.819l-3.043,3.043c-0.534,0.534-1.038,1.087-1.527,1.648
		c2.64,0.206,5.424,0.318,8.306,0.318c16.708,0,30.253-3.699,30.253-8.261C79.41,160.658,77.553,159.088,74.368,157.78z"/></svg>